<svg xmlns="http://www.w3.org/2000/svg" width="120" height="120" viewBox="0 0 120 120" fill="none">
<g clip-path="url(#clip0_10051_18193)">
<path d="M51.8906 86.2886L51.142 85.6286C45.9567 90.8139 40.0514 93.4302 33.4097 93.5179C29.3859 93.5616 25.3304 92.6329 21.2386 90.719C17.1323 88.7983 13.5852 86.3954 10.5924 83.5127C7.59208 80.6226 5.15779 77.4383 3.28631 73.9595C1.41676 70.4844 0.5 67.2623 0.5 64.2857C0.5 61.9416 0.966358 59.9524 1.8776 58.2994C2.79355 56.6379 4.0434 55.38 5.63046 54.5124C7.26106 53.621 9.02402 52.9676 10.9214 52.5532C12.8237 52.1378 14.8969 51.9286 17.1429 51.9286C39.311 51.9286 60.4334 62.7187 73.1848 80.8457L73.1851 80.8461C75.0682 83.5176 76.5987 86.7707 77.7695 90.6144C78.9395 94.4556 79.5223 98.2012 79.5223 101.853C79.5223 104.314 79.2366 106.579 78.6695 108.651C78.1041 110.717 77.2249 112.583 76.0329 114.252C74.8615 115.892 73.2599 117.177 71.2112 118.105C69.1685 119.029 66.7527 119.5 63.9509 119.5C62.1614 119.5 60.2502 118.824 58.2085 117.412C56.1717 116.004 54.3627 114.09 52.7856 111.659C51.2027 109.218 49.9489 106.579 49.0245 103.74C48.1123 100.938 47.8709 97.957 48.3078 94.7893C48.7422 91.6398 49.9352 88.8089 51.8906 86.2886ZM66.4425 13.3896L66.4431 13.387C67.4074 9.74927 69.0134 6.68586 71.2542 4.18403C73.4573 1.72423 76.2119 0.5 79.5536 0.5C83.0094 0.5 86.5801 2.06649 90.2734 5.29816C93.9631 8.52662 97.0267 12.7416 99.4575 17.9568C101.886 23.166 103.094 28.3398 103.094 33.4821C103.094 38.2667 101.975 42.5765 99.746 46.4234C97.5169 50.2696 94.3247 53.3781 90.1547 55.7484L90.5865 56.6477C94.2045 55.2092 97.7255 54.9211 101.164 55.7646C104.648 56.619 107.741 58.1066 110.451 60.2264C113.174 62.3567 115.364 64.8005 117.027 67.5574C118.692 70.3174 119.5 72.8623 119.5 75.2009C119.5 76.4677 119.226 77.8354 118.662 79.308C118.103 80.7715 117.272 82.1883 116.163 83.5582C115.081 84.8948 113.583 86.0241 111.65 86.9362C109.738 87.8387 107.591 88.2946 105.201 88.2946C100.782 88.2946 96.1353 87.1245 91.2558 84.762C86.372 82.3975 82.5385 79.5467 79.736 76.2192C65.4012 59.0084 60.3515 35.8923 66.2037 14.2716L66.4425 13.3896Z" fill="white" stroke="black"/>
<path d="M53.7857 31.4286C53.7857 39.0422 47.6136 45.2143 39.9999 45.2143C32.3863 45.2143 26.2142 39.0422 26.2142 31.4286C26.2142 23.815 32.3863 17.6429 39.9999 17.6429C47.6136 17.6429 53.7857 23.815 53.7857 31.4286Z" fill="#FFD8E6" stroke="black"/>
<path d="M87.3572 16.7857C87.3572 20.2572 84.543 23.0714 81.0715 23.0714C77.6 23.0714 74.7858 20.2572 74.7858 16.7857C74.7858 13.3142 77.6 10.5 81.0715 10.5C84.543 10.5 87.3572 13.3142 87.3572 16.7857Z" fill="white" stroke="black"/>
<path d="M22.3572 67.5C22.3572 70.9715 19.543 73.7857 16.0715 73.7857C12.6 73.7857 9.78577 70.9715 9.78577 67.5C9.78577 64.0285 12.6 61.2143 16.0715 61.2143C19.543 61.2143 22.3572 64.0285 22.3572 67.5Z" stroke="black"/>
<path d="M85.2219 108.806C86.4853 103.302 85.2055 91.8145 82.4497 86.4542" stroke="black"/>
</g>
<defs>
<clipPath id="clip0_10051_18193">
<rect width="120" height="120" fill="white"/>
</clipPath>
</defs>
</svg>