<svg xmlns="http://www.w3.org/2000/svg" width="120" height="120" viewBox="0 0 120 120" fill="none">
<g clip-path="url(#clip0_10047_17668)">
<rect x="0.5" y="0.5" width="119" height="119" fill="white" stroke="black"/>
<path d="M30 0V120" stroke="black"/>
<path d="M120 30L1.3113e-06 30" stroke="black"/>
<path d="M60 0V120" stroke="black"/>
<path d="M120 60L1.3113e-06 60" stroke="black"/>
<path d="M90 0V120" stroke="black"/>
<path d="M120 90L1.3113e-06 90" stroke="black"/>
<path d="M119.5 119.5H1.15544C5.82867 114.622 9.86673 112.167 13.4738 111.123C17.2748 110.023 20.6568 110.471 23.8974 111.394C25.327 111.802 26.7198 112.298 28.114 112.796C28.3058 112.864 28.4976 112.932 28.6895 113.001C30.2692 113.562 31.8546 114.107 33.4596 114.483C36.6865 115.241 40.0154 115.322 43.6501 113.526C46.4052 112.164 48.1687 109.128 49.5823 105.525C50.4571 103.295 51.2255 100.766 52.0082 98.1897C52.4894 96.6056 52.976 95.0038 53.4961 93.4431C54.8768 89.2994 56.5086 85.3829 58.9406 82.5041C61.352 79.6496 64.5551 77.8078 69.1429 77.8078C76.1526 77.8078 79.735 81.4635 82.7576 84.5481C82.9603 84.7549 83.1605 84.9592 83.359 85.1597C84.9146 86.7302 86.446 88.1506 88.3356 88.5083C90.2702 88.8745 92.4222 88.1112 95.181 85.7657C97.416 83.8655 99.502 81.8282 101.515 79.8529L101.727 79.6454C103.669 77.7393 105.543 75.8999 107.44 74.2804C111.231 71.0421 115.04 68.7461 119.5 68.5859V119.5Z" fill="#C8F3CF" stroke="black"/>
</g>
<defs>
<clipPath id="clip0_10047_17668">
<rect width="120" height="120" fill="white"/>
</clipPath>
</defs>
</svg>