<svg xmlns="http://www.w3.org/2000/svg" width="168" height="168" viewBox="0 0 168 168" fill="none">
<g clip-path="url(#clip0_10051_17453)">
<path d="M165.943 165.851C165.382 165.353 164.706 164.754 163.927 164.062C161.404 161.821 157.792 158.606 153.434 154.705C144.717 146.904 133.016 136.365 121.08 125.409C109.143 114.453 96.9738 103.084 87.3192 93.6226C82.4915 88.8917 78.2966 84.642 75.0751 81.1618C71.8386 77.6653 69.6264 74.9891 68.7213 73.3908C67.7846 71.7368 67.183 70.472 66.8589 69.5056C66.5296 68.5234 66.5188 67.9402 66.6376 67.5932C66.7397 67.295 66.9762 67.0665 67.4988 66.8984C68.041 66.724 68.7981 66.6479 69.7857 66.6166C70.341 66.5989 70.9547 66.5962 71.6186 66.5933C75.6072 66.5756 81.409 66.5499 87.2542 63.2396C90.7141 61.2802 93.408 57.9009 95.6172 54.2214C97.4664 51.1415 99.0054 47.7989 100.373 44.8294C100.64 44.2494 100.9 43.6835 101.155 43.1367C101.939 41.4545 102.669 39.9575 103.38 38.7551C104.099 37.5396 104.762 36.6914 105.391 36.2459C105.697 36.0294 105.974 35.9234 106.23 35.9002C106.481 35.8774 106.756 35.9302 107.072 36.1047C107.733 36.4696 108.526 37.3426 109.457 38.9862C113.211 45.6151 127.579 77.8985 141.031 108.58C147.751 123.908 154.236 138.82 159.04 149.901C161.443 155.441 163.425 160.023 164.807 163.22C165.249 164.243 165.63 165.125 165.943 165.851Z" fill="white" stroke="black" stroke-width="1.1553"/>
<rect x="80.5" y="0.5" width="17" height="39" rx="8.5" fill="white" stroke="black"/>
<path d="M110.58 73.1943C109.441 74.6666 106.9 77.2399 103.287 80.6419C99.6851 84.033 95.048 88.2189 89.7428 92.905C79.1329 102.277 65.8622 113.639 52.8818 124.625C39.9018 135.611 27.2144 146.218 17.7718 154.079C13.0505 158.01 9.14051 161.254 6.41091 163.515C5.53177 164.243 4.77507 164.87 4.15315 165.384C4.50071 164.659 4.92364 163.777 5.41536 162.752C6.94568 159.563 9.14233 154.994 11.8076 149.473C17.1382 138.432 24.3431 123.584 31.8406 108.358C39.3384 93.1312 47.1275 77.5289 53.6269 64.9776C56.8768 58.7016 59.8025 53.1917 62.2072 48.8743C64.6194 44.5435 66.488 41.4482 67.6282 39.974C76.8017 28.1133 93.8533 25.935 105.714 35.1085C117.575 44.2821 119.753 61.3337 110.58 73.1943Z" fill="white" stroke="black" stroke-width="1.1553"/>
<circle cx="89.1039" cy="56.5841" r="17.9072" transform="rotate(37.7198 89.1039 56.5841)" fill="#C5BCFF" stroke="black" stroke-width="1.1553"/>
<path d="M65 131L40 151.5" stroke="black"/>
</g>
<defs>
<clipPath id="clip0_10051_17453">
<rect width="168" height="168" fill="white"/>
</clipPath>
</defs>
</svg>