<svg xmlns="http://www.w3.org/2000/svg" width="120" height="120" viewBox="0 0 120 120" fill="none">
<path d="M64.3135 1.42847C39.5122 1.42847 19.9323 20.3015 18.6269 45.0316L6.22632 61.3015C4.92099 63.2539 6.22632 66.5078 8.83698 66.5078H18.6269V86.0316C18.6269 93.1904 24.5009 99.0475 31.6802 99.0475H38.2069V118.571H83.8934V87.984C99.5573 80.8253 110 65.2062 110 46.984C110 21.6031 89.7674 1.42847 64.3135 1.42847Z" fill="white" stroke="black"/>
<path d="M100.214 46.4286C100.214 66.276 84.2838 82.3571 64.6428 82.3571C45.0019 82.3571 29.0714 66.276 29.0714 46.4286C29.0714 26.5811 45.0019 10.5 64.6428 10.5C84.2838 10.5 100.214 26.5811 100.214 46.4286Z" fill="#ECFDC7" stroke="black"/>
<path d="M41.1171 55.0001L43.1634 49.1899H51.199L53.2453 55.0001H55.0766L48.1156 35.7144H46.2468L39.2858 55.0001H41.1171ZM43.724 47.6078L47.1158 38.0027H47.2466L50.6384 47.6078H43.724Z" fill="black"/>
<path d="M58.3563 55.0001H65.5322C69.3725 55.0001 71.5496 52.7683 71.5496 49.463C71.5496 46.2518 69.3538 44.1895 65.5322 44.1895H60.1035V37.2964H69.522V35.7144H58.3563V55.0001ZM60.1035 53.4463V45.7716H65.5322C68.2326 45.7716 69.8303 47.3536 69.8303 49.4253C69.8303 51.6571 68.2699 53.4463 65.5322 53.4463H60.1035Z" fill="black"/>
<path d="M75.7519 55.0001H82.5635C86.6747 55.0001 88.5715 52.8624 88.5715 49.9432C88.5715 47.0146 86.6467 45.2536 84.7873 45.1218V44.9711C86.4972 44.5097 87.824 43.1725 87.824 40.7618C87.824 37.8614 85.9459 35.7144 82.2084 35.7144H75.7519V55.0001ZM77.4992 53.418V45.9881H82.6382C85.2077 45.9881 86.899 47.7397 86.899 49.9432C86.899 51.9396 85.5161 53.418 82.5635 53.418H77.4992ZM77.4992 44.4249V37.2964H82.2084C84.8246 37.2964 86.1515 38.7183 86.1515 40.7618C86.1515 42.8806 84.6284 44.4249 82.3673 44.4249H77.4992Z" fill="black"/>
</svg>