<svg xmlns="http://www.w3.org/2000/svg" width="120" height="120" viewBox="0 0 120 120" fill="none">
<g clip-path="url(#clip0_10051_17745)">
<path d="M60.3571 16.0714V103.929" stroke="black"/>
<path d="M104.286 60L16.4286 60" stroke="black"/>
<path d="M29.2949 28.9378L91.4193 91.0622" stroke="black"/>
<path d="M91.4193 28.9378L29.2949 91.0622" stroke="black"/>
<path d="M76.0996 18.9893L44.6144 101.011" stroke="black"/>
<path d="M44.6144 18.9893L76.0996 101.011" stroke="black"/>
<path d="M19.6271 43.5436L101.087 76.4555" stroke="black"/>
<path d="M19.9206 77.1644L100.793 42.8359" stroke="black"/>
<mask id="path-9-inside-1_10051_17745" fill="white">
<path fill-rule="evenodd" clip-rule="evenodd" d="M60 120C93.1371 120 120 93.1371 120 60C120 26.8629 93.1371 0 60 0C26.8629 0 0 26.8629 0 60C0 93.1371 26.8629 120 60 120ZM60 102.857C83.6693 102.857 102.857 83.6693 102.857 60C102.857 36.3307 83.6693 17.1429 60 17.1429C36.3307 17.1429 17.1429 36.3307 17.1429 60C17.1429 83.6693 36.3307 102.857 60 102.857Z"/>
</mask>
<path fill-rule="evenodd" clip-rule="evenodd" d="M60 120C93.1371 120 120 93.1371 120 60C120 26.8629 93.1371 0 60 0C26.8629 0 0 26.8629 0 60C0 93.1371 26.8629 120 60 120ZM60 102.857C83.6693 102.857 102.857 83.6693 102.857 60C102.857 36.3307 83.6693 17.1429 60 17.1429C36.3307 17.1429 17.1429 36.3307 17.1429 60C17.1429 83.6693 36.3307 102.857 60 102.857Z" fill="white"/>
<path d="M119 60C119 92.5848 92.5848 119 60 119V121C93.6894 121 121 93.6894 121 60H119ZM60 1C92.5848 1 119 27.4152 119 60H121C121 26.3106 93.6894 -1 60 -1V1ZM1 60C1 27.4152 27.4152 1 60 1V-1C26.3106 -1 -1 26.3106 -1 60H1ZM60 119C27.4152 119 1 92.5848 1 60H-1C-1 93.6894 26.3106 121 60 121V119ZM101.857 60C101.857 83.1171 83.1171 101.857 60 101.857V103.857C84.2216 103.857 103.857 84.2216 103.857 60H101.857ZM60 18.1429C83.1171 18.1429 101.857 36.8829 101.857 60H103.857C103.857 35.7784 84.2216 16.1429 60 16.1429V18.1429ZM18.1429 60C18.1429 36.8829 36.8829 18.1429 60 18.1429V16.1429C35.7784 16.1429 16.1429 35.7784 16.1429 60H18.1429ZM60 101.857C36.8829 101.857 18.1429 83.1171 18.1429 60H16.1429C16.1429 84.2216 35.7784 103.857 60 103.857V101.857Z" fill="black" mask="url(#path-9-inside-1_10051_17745)"/>
<path d="M73.7857 60C73.7857 67.6136 67.6137 73.7857 60 73.7857C52.3864 73.7857 46.2143 67.6136 46.2143 60C46.2143 52.3864 52.3864 46.2143 60 46.2143C67.6137 46.2143 73.7857 52.3864 73.7857 60Z" fill="#D6D3D3" stroke="black"/>
<circle cx="60" cy="60" r="53.7857" stroke="black"/>
</g>
<defs>
<clipPath id="clip0_10051_17745">
<rect width="120" height="120" fill="white"/>
</clipPath>
</defs>
</svg>